<svg width="47" height="47" viewBox="0 0 47 47" fill="none" xmlns="http://www.w3.org/2000/svg">
<circle cx="23.2334" cy="23.2334" r="22.4037" fill="#D9D9D9" stroke="#263238" stroke-width="1.65953"/>
<path d="M39.3627 14.1885C38.5026 15.4699 37.4143 16.6108 36.1505 17.5235C36.1681 17.7868 36.1681 18.0677 36.1681 18.3485C36.1681 26.8616 29.6911 36.6735 17.8606 36.6735C14.2272 36.6735 10.8395 35.6028 7.97839 33.7773C8.48742 33.83 8.99645 33.8651 9.52303 33.8651C12.5421 33.8651 15.3154 32.8295 17.5095 31.1093C16.1673 31.0816 14.8673 30.6353 13.7911 29.8328C12.7149 29.0304 11.9161 27.9118 11.5065 26.6334C11.8926 26.7036 12.2964 26.7563 12.7176 26.7563C13.2969 26.7563 13.8761 26.6685 14.4027 26.5281C12.9469 26.2292 11.6386 25.4375 10.6986 24.2864C9.75851 23.1353 9.24414 21.6953 9.24219 20.2091V20.1389C10.1198 20.6128 11.1028 20.9112 12.1559 20.9463C11.2744 20.355 10.5523 19.5556 10.0532 18.6188C9.5542 17.682 9.29373 16.6366 9.29485 15.5752C9.29485 14.3991 9.6108 13.2933 10.1725 12.3455C13.3495 16.2422 18.0888 18.8049 23.4423 19.0682C23.337 18.5942 23.2668 18.1028 23.2668 17.5937C23.2715 15.8883 23.9522 14.2543 25.1598 13.05C26.3674 11.8457 28.0032 11.1694 29.7087 11.1694C31.5692 11.1694 33.2368 11.9418 34.4128 13.2055C35.8697 12.9072 37.2563 12.3806 38.5026 11.6434C38.0111 13.1353 36.993 14.3991 35.659 15.189C36.9379 15.0492 38.1873 14.7117 39.3627 14.1885Z" fill="#252525"/>
</svg>
